<svg xmlns="http://www.w3.org/2000/svg" viewBox="0 0 256 256">
  <defs>
    <linearGradient id="aws-grad" x1="0%" y1="100%" x2="100%" y2="0%">
      <stop offset="0%" style="stop-color:#f90;stop-opacity:1" />
      <stop offset="100%" style="stop-color:#ff9900;stop-opacity:1" />
    </linearGradient>
  </defs>
  <rect width="256" height="256" rx="24" fill="#232F3E"/>
  <path fill="#FF9900" d="M70 110c0 8 1 14 3 18 3 4 6 9 11 14 2 2 3 4 3 5 0 2-1 4-4 6l-13 9c-2 1-4 2-6 2-2 0-4-1-6-3-5-6-9-11-11-15-3-5-6-10-9-16-22 26-50 39-83 39-24 0-43-7-57-20-14-14-21-32-21-55 0-24 8-44 26-59 17-15 40-22 70-22 10 0 20 1 30 2 10 1 21 4 33 6v-21c0-22-5-37-13-46-9-9-25-13-46-13-10 0-20 1-31 4-11 3-21 6-31 10-4 1-7 3-10 4-2 1-4 1-5 1-4 0-6-3-6-9v-14c0-5 1-8 2-10 1-2 4-4 8-6 10-5 22-9 36-13 15-4 30-5 45-5 34 0 59 8 75 23 16 15 24 39 24 70v93zm-116 43c9 0 19-2 29-5 10-3 20-10 27-18 5-5 8-11 10-18 2-7 3-15 3-25v-12c-8-2-17-4-26-5-9-2-19-2-27-2-19 0-33 4-42 11-9 8-14 19-14 33 0 13 3 23 11 30 7 7 17 11 30 11zm190 31c-5 0-8-1-11-3-2-2-4-6-6-11l-56-185c-2-6-3-10-3-11 0-5 2-7 7-7h28c5 0 9 1 11 3 2 2 4 6 6 11l40 158 37-158c1-6 3-10 5-11 2-2 6-3 11-3h23c5 0 9 1 11 3 2 2 4 6 5 11l38 160 41-160c2-6 4-10 6-11 2-2 6-3 11-3h26c5 0 8 2 8 7 0 1 0 3-1 5 0 2-1 5-2 8l-57 185c-2 6-4 10-6 11-2 2-6 3-11 3h-25c-5 0-9-1-11-3-2-2-4-6-5-11l-37-154-37 154c-1 6-3 10-5 11-2 2-6 3-11 3h-25z"/>
</svg>
