<svg xmlns="http://www.w3.org/2000/svg" viewBox="0 0 256 256">
  <rect width="256" height="256" rx="24" fill="#F05033"/>
  <path fill="#FFF" d="M251.17 116.6L139.4 4.82c-6.42-6.43-16.84-6.43-23.27 0L93.1 27.85l29.7 29.7c6.82-2.3 14.63-.78 20.05 4.64 5.43 5.44 6.95 13.28 4.62 20.12l28.62 28.62c6.84-2.33 14.68-.8 20.11 4.63 7.61 7.61 7.61 19.94 0 27.55-7.61 7.61-19.94 7.61-27.55 0-5.7-5.7-7.12-14.09-4.25-21.13l-26.7-26.7v70.2c1.86.92 3.6 2.15 5.15 3.7 7.61 7.61 7.61 19.94 0 27.55-7.61 7.61-19.94 7.61-27.55 0-7.61-7.61-7.61-19.94 0-27.55 1.88-1.88 4.06-3.31 6.4-4.31V93.04c-2.34-1-4.52-2.43-6.4-4.31-5.73-5.73-7.13-14.16-4.21-21.22L90.83 37.98 4.83 123.98c-6.43 6.43-6.43 16.84 0 23.27l111.77 111.78c6.43 6.43 16.84 6.43 23.27 0l111.3-111.3c6.43-6.43 6.43-16.84 0-23.27z"/>
</svg>
