<svg xmlns="http://www.w3.org/2000/svg" viewBox="0 0 256 256">
  <defs>
    <linearGradient id="java-red" x1="0%" y1="0%" x2="0%" y2="100%">
      <stop offset="0%" style="stop-color:#e76f00;stop-opacity:1" />
      <stop offset="100%" style="stop-color:#ea1b22;stop-opacity:1" />
    </linearGradient>
    <linearGradient id="java-blue" x1="0%" y1="0%" x2="0%" y2="100%">
      <stop offset="0%" style="stop-color:#2d4e9f;stop-opacity:1" />
      <stop offset="100%" style="stop-color:#1a3d7c;stop-opacity:1" />
    </linearGradient>
  </defs>
  <rect width="256" height="256" rx="24" fill="#5382A1"/>
  <path fill="url(#java-red)" d="M88 188c0 0-10 6 7 8 20 2 30 2 52-2 0 0 6 4 14 7-50 21-113-1-73-13zm-6-27c0 0-11 8 6 10 22 3 40 3 70-4 0 0 4 4 10 6-58 17-122 1-86-12z"/>
  <path fill="url(#java-blue)" d="M144 134c12 14-3 27-3 27s31-16 17-36c-13-19-23-28 31-60 0 0-85 21-45 69z"/>
  <path fill="url(#java-red)" d="M177 209c0 0 7 6-8 10-28 8-117 10-142 0-9-4 8-9 13-10 5-1 8-1 8-1-9-6-60 13-26 18 100 15 182-7 155-17zm-95-68c0 0-43 10-15 14 12 2 36 2 58-1 18-2 36-6 36-6s-6 3-11 6c-43 11-127 6-103-6 20-10 35-7 35-7zm84 37c44-23 24-45 9-42-4 1-6 2-6 2s2-3 5-4c37-13 66 29-9 45 0 0 1-1 1-1z"/>
  <path fill="url(#java-blue)" d="M106 34s25 25-23 63c-39 31-9 48 0 68-23-20-39-38-28-55 16-25 60-37 51-76z"/>
  <path fill="url(#java-red)" d="M90 223c42 3 107-2 109-25 0 0-3 8-35 14-36 7-80 6-107 2 0 0 5 4 33 9z"/>
</svg>
