<svg xmlns="http://www.w3.org/2000/svg" viewBox="0 0 48 48">
  <defs>
    <linearGradient id="javaRed" x1="0%" y1="0%" x2="0%" y2="100%">
      <stop offset="0%" style="stop-color:#ea2d2e"/>
      <stop offset="100%" style="stop-color:#c74634"/>
    </linearGradient>
    <linearGradient id="javaBlue" x1="0%" y1="0%" x2="0%" y2="100%">
      <stop offset="0%" style="stop-color:#5382a1"/>
      <stop offset="100%" style="stop-color:#32617d"/>
    </linearGradient>
  </defs>
  <!-- Coffee cup -->
  <path fill="url(#javaBlue)" d="M18 36c0 1.7 1.3 3 3 3h12c1.7 0 3-1.3 3-3V18c0-1.7-1.3-3-3-3H21c-1.7 0-3 1.3-3 3v18z"/>
  <path fill="url(#javaBlue)" d="M36 20h2c2.2 0 4 1.8 4 4v2c0 2.2-1.8 4-4 4h-2"/>
  <!-- Steam lines -->
  <path fill="url(#javaRed)" stroke="url(#javaRed)" stroke-width="1.5" stroke-linecap="round" d="M23 13c0-2 1-4 1-4s1 2 1 4-1 4-1 4-1-2-1-4z"/>
  <path fill="url(#javaRed)" stroke="url(#javaRed)" stroke-width="1.5" stroke-linecap="round" d="M28 11c0-2 1-4 1-4s1 2 1 4-1 4-1 4-1-2-1-4z"/>
  <path fill="url(#javaRed)" stroke="url(#javaRed)" stroke-width="1.5" stroke-linecap="round" d="M18 12c0-2 1-4 1-4s1 2 1 4-1 4-1 4-1-2-1-4z"/>
  <!-- Highlight -->
  <ellipse cx="27" cy="22" rx="3" ry="2" fill="#fff" opacity="0.3"/>
</svg>
