<svg xmlns="http://www.w3.org/2000/svg" viewBox="0 0 300 300">
  <!-- Java Red Coffee Cup Logo -->
  <path fill="#5382a1" d="M102.681 291.324s-14.178 8.245 10.09 11.035c29.4 3.354 44.426 2.873 76.825-3.259 0 0 8.518 5.341 20.414 9.967-72.63 31.128-164.376-1.803-107.329-17.743M93.806 250.704s-15.902 11.771 8.384 14.283c31.406 3.24 56.208 3.505 99.125-4.759 0 0 5.932 6.012 15.248 9.309-87.66 25.612-185.256 2.021-122.757-18.833"/>
  <path fill="#e76f00" d="M168.625 181.799c17.896 20.604-4.702 39.145-4.702 39.145s45.441-23.458 24.572-52.833c-19.491-27.394-34.438-41.005 46.479-87.934.001-.001-127.013 31.721-66.349 101.622M259.474 310.831s10.493 8.646-11.548 15.333c-41.979 12.742-174.487 16.588-211.303.507-13.239-5.786 11.587-13.819 19.396-15.509 8.172-1.769 12.834-1.438 12.834-1.438-14.766-10.395-95.338 20.407-40.927 29.223 148.139 24.023 269.989-10.835 231.548-28.116M108.965 212.443s-67.431 16.016-23.879 21.832c18.389 2.462 55.047 1.905 89.192-.949 27.906-2.354 55.928-7.358 55.928-7.358s-9.84 4.214-16.959 9.075c-68.475 18.009-200.756 9.631-162.674-8.79 32.206-15.568 58.392-13.81 58.392-13.81M235.169 263.817c69.608-36.171 37.424-70.931 14.96-66.248-5.506 1.146-7.961 2.139-7.961 2.139s2.044-3.202 5.948-4.588c44.441-15.624 78.619 46.081-14.346 70.521 0 0 1.074-.962 1.399-1.824"/>
  <path fill="#e76f00" d="M142.734 15.313s38.553 38.563-36.571 97.862c-60.238 47.638-13.744 74.856.019 105.937-35.234-31.777-61.053-59.721-43.729-85.686 25.464-38.265 96.014-56.807 80.281-118.113"/>
  <path fill="#5382a1" d="M106.162 331.135c66.793 4.271 169.339-2.373 171.684-33.935 0 0-4.668 11.965-55.159 21.464-57.035 10.731-127.388 9.471-169.141 2.601.001-.001 8.547 7.066 52.616 9.87"/>
</svg>
