<svg xmlns="http://www.w3.org/2000/svg" viewBox="0 0 48 48">
  <rect width="48" height="48" rx="4" fill="#f7df1e"/>
  <path fill="#000" d="M27.1 35.3c1.1 1.8 2.5 3.1 5 3.1 2.1 0 3.4-.9 3.4-2.3 0-1.6-1.4-2.1-3.6-3l-1.2-.5c-3.6-1.5-6-3.4-6-7.4 0-3.7 2.8-6.5 7.2-6.5 3.1 0 5.4 1.1 7 3.9l-3.8 2.5c-.8-1.5-1.7-2.1-3.2-2.1-1.5 0-2.4.9-2.4 2.1 0 1.5.9 2.1 3.1 3l1.2.5c4.2 1.8 6.6 3.6 6.6 7.7 0 4.4-3.5 6.8-8.1 6.8-4.5 0-7.5-2.2-8.9-5l4.7-2.8zM13.7 35.7c.7 1.3 1.4 2.3 2.9 2.3 1.5 0 2.4-.6 2.4-2.9V19.4h5.3v15.8c0 4.8-2.8 7-6.9 7-3.7 0-5.8-1.9-6.9-4.2l4.2-2.3z"/>
</svg>
