<svg xmlns="http://www.w3.org/2000/svg" viewBox="0 0 256 256">
  <rect width="256" height="256" rx="24" fill="#00758F"/>
  <path fill="#E48E00" d="M180 180c-3 0-5-1-7-2-2-2-3-4-3-7v-50c0-6 2-11 5-15s8-6 14-6c3 0 6 1 8 2l-1 6c-2-1-4-2-7-2-4 0-7 1-9 4-2 3-3 6-3 11v50c0 2 1 3 2 4 1 1 3 2 5 2v6zm-40 0l-16-32h-8v25c0 2 0 4 1 5 1 1 2 2 4 2v6h-21v-6c2 0 3-1 4-2 1-1 1-3 1-5v-46c0-3-1-5-2-6-1-1-3-2-5-2v-6h28c6 0 11 1 14 4 3 2 5 6 5 10 0 3-1 6-3 8-2 3-5 5-9 6l15 30c1 2 2 3 3 4 1 1 3 1 5 1v6h-16zm-24-44h9c4 0 7-1 9-3 2-2 3-4 3-7 0-3-1-5-3-7-2-1-5-2-9-2h-9v19z"/>
  <path fill="#FFF" d="M48 132l-4 48h-6l-4-48v-12h14v12zm72 0c0 16-3 28-8 37s-12 13-21 13c-9 0-16-4-21-13s-8-21-8-37v-6c0-16 3-28 8-37s12-13 21-13c9 0 16 4 21 13s8 21 8 37v6zm-8-6c0-14-2-24-6-31-4-6-9-10-16-10s-12 4-16 10c-4 7-6 17-6 31v6c0 14 2 25 6 31 4 7 9 10 16 10s12-3 16-10c4-6 6-17 6-31v-6zm106 54l-16-32h-8v25c0 2 0 4 1 5 1 1 2 2 4 2v6h-21v-6c2 0 3-1 4-2 1-1 1-3 1-5v-46c0-3-1-5-2-6-1-1-3-2-5-2v-6h28c6 0 11 1 14 4 3 2 5 6 5 10 0 3-1 6-3 8-2 3-5 5-9 6l15 30c1 2 2 3 3 4 1 1 3 1 5 1v6h-16zm-24-44h9c4 0 7-1 9-3 2-2 3-4 3-7 0-3-1-5-3-7-2-1-5-2-9-2h-9v19z"/>
</svg>
