<svg xmlns="http://www.w3.org/2000/svg" viewBox="0 0 48 48">
  <defs>
    <linearGradient id="nodeGreen" x1="50%" y1="0%" x2="50%" y2="100%">
      <stop offset="0%" style="stop-color:#6cc24a"/>
      <stop offset="100%" style="stop-color:#509137"/>
    </linearGradient>
  </defs>
  <path fill="url(#nodeGreen)" d="M24 3.5c-.7 0-1.4.2-2 .5L6.7 12.3c-1.2.7-2 2-2 3.4v16.6c0 1.4.8 2.7 2 3.4L22 44c.6.3 1.3.5 2 .5s1.4-.2 2-.5l15.3-8.3c1.2-.7 2-2 2-3.4V15.7c0-1.4-.8-2.7-2-3.4L26 4c-.6-.3-1.3-.5-2-.5zm0 3.7c.2 0 .5 0 .7.2l15.3 8.3c.4.2.7.7.7 1.2v16.6c0 .5-.3.9-.7 1.2L24.7 43c-.4.2-.9.2-1.4 0l-15.3-8.3c-.4-.2-.7-.7-.7-1.2V16.9c0-.5.3-.9.7-1.2L23.3 7.4c.2-.2.5-.2.7-.2z"/>
  <path fill="#fff" d="M24 19.5c-2.5 0-4.5 2-4.5 4.5s2 4.5 4.5 4.5 4.5-2 4.5-4.5-2-4.5-4.5-4.5z"/>
</svg>
