<svg xmlns="http://www.w3.org/2000/svg" viewBox="0 0 48 48">
  <defs>
    <linearGradient id="pyBlue" x1="0%" y1="0%" x2="0%" y2="100%">
      <stop offset="0%" style="stop-color:#387EB8"/>
      <stop offset="100%" style="stop-color:#366994"/>
    </linearGradient>
    <linearGradient id="pyYellow" x1="0%" y1="100%" x2="0%" y2="0%">
      <stop offset="0%" style="stop-color:#FFE873"/>
      <stop offset="100%" style="stop-color:#FFD43B"/>
    </linearGradient>
  </defs>
  <path fill="url(#pyBlue)" d="M24.047 5c-1.555.007-3.043.142-4.368.398-3.308.638-3.907 1.974-3.907 4.435v3.251h7.814v.99H13.82c-2.27 0-4.256 1.363-4.877 3.958-.717 2.987-.748 4.852 0 7.96.555 2.311 1.878 3.958 4.148 3.958h2.683v-3.563c0-2.578 2.23-4.85 4.877-4.85h7.81c2.17 0 3.907-1.792 3.907-3.969V9.833c0-2.114-1.782-3.702-3.907-4.435-1.355-.468-2.75-.405-4.414-.398zM20.02 8.57c.808 0 1.463.663 1.463 1.48 0 .81-.655 1.468-1.463 1.468-.81 0-1.464-.657-1.464-1.469 0-.817.655-1.48 1.464-1.48z"/>
  <path fill="url(#pyYellow)" d="M31.184 13.839v3.465c0 2.688-2.28 4.948-4.877 4.948h-7.81c-2.136 0-3.907 1.827-3.907 3.969v7.438c0 2.114 1.84 3.36 3.907 3.969 2.473.729 4.84.86 7.81 0 1.963-.571 3.907-1.72 3.907-3.969v-3.251h-7.81v-.99h11.718c2.27 0 3.115-1.583 3.907-3.958.817-2.447.783-4.799 0-7.96-.565-2.279-1.636-3.958-3.907-3.958h-2.938zm-4.365 22.057c.81 0 1.464.657 1.464 1.469 0 .817-.655 1.48-1.464 1.48-.808 0-1.463-.663-1.463-1.48 0-.812.656-1.47 1.463-1.47z"/>
</svg>
